<svg width="332" height="130" viewBox="0 0 332 130" fill="none" xmlns="http://www.w3.org/2000/svg">
<path d="M10.8828 103H23.1172V40H38.0234V29.875H22.9766V20.9453C22.9766 13.7031 26.3516 10.2578 33.1016 10.2578C35 10.2578 36.8984 10.3281 38.375 10.5391V0.625C36.5469 0.34375 33.6641 0.132812 30.9219 0.132812C17.4219 0.132812 10.8828 6.8125 10.8828 20.875V29.875H0.6875V40H10.8828V103ZM57.5703 17.5C61.8594 17.5 65.2344 14.0547 65.2344 9.83594C65.2344 5.54688 61.8594 2.17188 57.5703 2.17188C53.3516 2.17188 49.9062 5.54688 49.9062 9.83594C49.9062 14.0547 53.3516 17.5 57.5703 17.5ZM51.4531 103H63.6875V29.875H51.4531V103ZM111.289 129.016C131.117 129.016 143.562 117.906 143.562 100.961V29.875H131.328V42.25H131.047C126.547 34.0938 118.391 28.4688 108.055 28.4688C89.4922 28.4688 76.7656 43.2344 76.7656 65.9453V66.0156C76.7656 88.8672 89.3516 103.703 107.773 103.703C118.25 103.703 126.688 98.5 131.047 90.4141H131.328V99.7656C131.328 111.086 124.016 118.188 111.148 118.188C101.164 118.188 94.2031 114.953 91.8828 109.68L91.6016 109.047H79.2969L79.4375 109.68C81.8281 120.508 93.2188 129.016 111.289 129.016ZM110.445 92.875C97.4375 92.875 89.2812 82.6094 89.2812 66.0156V65.9453C89.2812 49.7031 97.4375 39.2969 110.445 39.2969C122.82 39.2969 131.328 49.8438 131.328 65.9453V66.0156C131.328 82.2578 122.891 92.875 110.445 92.875ZM159.383 103H171.617V57.1562C171.617 46.9609 178.648 39.2969 188.352 39.2969C197.422 39.2969 203.328 45.1328 203.328 53.9922V103H215.562V56.5234C215.562 46.5391 222.383 39.2969 232.086 39.2969C241.719 39.2969 247.273 45.2734 247.273 55.3281V103H259.508V52.5156C259.508 37.9609 250.156 28.4688 235.672 28.4688C225.406 28.4688 216.828 33.7422 212.75 42.5312H212.469C209.305 33.6016 201.922 28.4688 191.938 28.4688C182.516 28.4688 175.203 33.3203 171.898 40.5625H171.617V29.875H159.383V103ZM296.492 104.406C306.266 104.406 315.055 99.1328 319.344 91.1172H319.625V103H331.859V52.4453C331.859 37.8203 321.031 28.4688 303.734 28.4688C286.508 28.4688 276.031 38.1719 274.977 50.1953L274.906 50.9688H286.719L286.859 50.3359C288.266 43.7969 294.172 39.2969 303.594 39.2969C313.789 39.2969 319.625 44.7109 319.625 53.6406V59.7578L298.672 60.9531C281.867 61.9375 272.164 69.7422 272.164 82.1875V82.3281C272.164 95.6172 281.938 104.406 296.492 104.406ZM284.68 82.3281V82.1875C284.68 75.3672 290.305 71.0078 300.078 70.4453L319.625 69.25V75.2266C319.625 85.8438 310.766 93.7891 299.234 93.7891C290.445 93.7891 284.68 89.3594 284.68 82.3281Z" fill="black"/>
</svg>
